<svg width="268" height="212" viewBox="0 0 268 212" fill="none" xmlns="http://www.w3.org/2000/svg">
<g style="mix-blend-mode:multiply" opacity="0.25">
 </g>
<g filter="url(#filter0_d_332_2)">
<path fill-rule="evenodd" clip-rule="evenodd" d="M50 81.8778V108.813L70.9841 120.831L94.6777 106.818V79.8834" fill="#FF9271"/>
</g>
  <path d="M70.9841 93.8959V120.831L94.6777 106.818V79.8834L70.9841 93.8959Z" fill="#DF5C34" />
  <path d="M50 81.8778L74.3469 68L94.6777 79.8834L70.9841 93.8959L50 81.8778Z" fill="#F47B56" />
  <path fill-rule="evenodd" clip-rule="evenodd" d="M78.645 75.747C76.4744 74.5584 74.0098 74.0155 71.5414 74.1822C68.9515 74.2278 66.4212 74.9675 64.2136 76.3241C63.0558 76.9833 62.1347 77.9908 61.581 79.2036C61.1193 80.2537 61.1193 81.4497 61.581 82.4999C62.14 83.6911 63.0707 84.6679 64.2328 85.2831C65.6727 86.0971 67.2601 86.616 68.9023 86.8095C70.7091 87.0596 72.5437 87.0271 74.3405 86.7133C75.9893 86.4624 77.5733 85.8917 79.0037 85.033C79.5001 84.7295 79.9619 84.3726 80.3808 83.9685C80.6986 83.6671 80.9821 83.3316 81.2263 82.968C81.3955 82.6983 81.533 82.4099 81.6363 82.1087C81.708 81.9208 81.7658 81.7279 81.8092 81.5315C81.8131 81.4589 81.8131 81.3861 81.8092 81.3135L79.4328 81.1788L79.3432 81.5828C79.2142 81.9898 78.9952 82.3624 78.7026 82.673C78.2652 83.1809 77.7481 83.6141 77.1717 83.9556C75.5058 84.9435 73.599 85.4496 71.6631 85.4178C69.7186 85.5 67.7895 85.0405 66.0904 84.0903C64.5339 83.1733 63.7332 82.0317 63.7332 80.7491C63.7204 79.4409 64.4698 78.3143 65.9815 77.3695C67.6426 76.3564 69.5453 75.8093 71.4901 75.7854C73.3253 75.6646 75.1567 76.0718 76.7682 76.959C78.2841 77.8568 78.6001 78.5815 77.7162 79.133C77.0683 79.4819 76.2887 79.4819 75.6408 79.133L71.4709 76.6768L69.671 77.7991L70.3115 78.1839H69.9592C69.6143 78.2031 69.2727 78.2612 68.9408 78.3571C68.5246 78.4652 68.1272 78.636 67.7622 78.8637C66.9865 79.232 66.489 80.0115 66.4811 80.871C66.5195 81.6662 67.032 82.3588 68.0312 82.9488C69.0879 83.5561 70.2914 83.8601 71.5093 83.8274C72.6865 83.8505 73.8468 83.544 74.8594 82.9424C75.2938 82.6962 75.656 82.3402 75.9099 81.9099C76.0624 81.6785 76.1508 81.4107 76.1661 81.1339C76.1519 81.017 76.1217 80.9027 76.0764 80.794L76.5632 80.8325C77.0092 80.8456 77.4549 80.8003 77.8891 80.6978C78.4175 80.591 78.9228 80.3913 79.3816 80.1078C80.3488 79.5242 80.7588 78.8316 80.6627 78.0364C80.5666 77.2412 79.8876 76.478 78.645 75.747ZM73.0723 79.8128C73.4879 79.9933 73.7876 80.3678 73.8729 80.8133H73.8986C73.9052 81.2232 73.6689 81.5982 73.2965 81.7688C72.8045 82.0597 72.2407 82.2064 71.6695 82.1921C71.0752 82.2058 70.4884 82.0573 69.972 81.7624C69.5615 81.5823 69.2749 81.2004 69.2162 80.7555C69.2259 80.3283 69.473 79.9423 69.8568 79.7551C70.3241 79.4751 70.8626 79.3369 71.4069 79.3575C71.9926 79.3583 72.5675 79.5154 73.0723 79.8128Z" fill="#3E2928" />
  <defs>
    <filter id="filter0_d_332_2" x="0" y="54.8834" width="144.678" height="140.947" filterUnits="userSpaceOnUse" color-interpolation-filters="sRGB">
      <feFlood flood-opacity="0" result="BackgroundImageFix" />
      <feColorMatrix in="SourceAlpha" type="matrix" values="0 0 0 0 0 0 0 0 0 0 0 0 0 0 0 0 0 0 127 0" result="hardAlpha" />
      <feOffset dy="25" />
      <feGaussianBlur stdDeviation="25" />
      <feColorMatrix type="matrix" values="0 0 0 0 0.209139 0 0 0 0 0.0691446 0 0 0 0 0.478091 0 0 0 0.497159 0" />
      <feBlend mode="normal" in2="BackgroundImageFix" result="effect1_dropShadow_332_2" />
      <feBlend mode="normal" in="SourceGraphic" in2="effect1_dropShadow_332_2" result="shape" />
    </filter>

    <linearGradient id="paint0_linear_332_2" x1="152.88" y1="93.0298" x2="147.356" y2="109.429" gradientUnits="userSpaceOnUse">
      <stop stop-color="#78B46A" />
      <stop offset="0.03" stop-color="#7F3500" />
      <stop offset="1" stop-color="white" />
    </linearGradient>
    <linearGradient id="paint1_linear_332_2" x1="116.638" y1="126.59" x2="107.345" y2="155.86" gradientUnits="userSpaceOnUse">
      <stop stop-color="#78B46A" />
      <stop offset="0.03" stop-color="#7F3500" />
      <stop offset="1" stop-color="white" />
    </linearGradient>
    <linearGradient id="paint2_linear_332_2" x1="93.6228" y1="65.182" x2="85.0255" y2="85.0579" gradientUnits="userSpaceOnUse">
      <stop stop-color="#78B46A" />
      <stop offset="0.03" stop-color="#7F3500" />
      <stop offset="1" stop-color="white" />
    </linearGradient>
    <linearGradient id="paint3_linear_332_2" x1="214.611" y1="82.9565" x2="211.253" y2="74.4329" gradientUnits="userSpaceOnUse">
      <stop stop-color="white" stop-opacity="0.01" />
      <stop offset="0.99" stop-color="#DC841E" />
    </linearGradient>
    <linearGradient id="paint4_linear_332_2" x1="60.9121" y1="94.437" x2="51.1352" y2="123.753" gradientUnits="userSpaceOnUse">
      <stop stop-color="#78B46A" />
      <stop offset="0.03" stop-color="#7F3500" />
      <stop offset="1" stop-color="white" />
    </linearGradient>
  </defs>
</svg>