<?xml version="1.0" encoding="UTF-8" standalone="no"?>
<svg
   width="240.00024"
   height="211.59308"
   viewBox="0 0 240.00024 211.59308"
   fill="none"
   version="1.1"
   id="svg164"
   xmlns="http://www.w3.org/2000/svg"
   xmlnsSvg="http://www.w3.org/2000/svg">

  <path
     d="M 115.994,177.68907 5.6760014,112.51207 c -3.5121,-1.974 -6.52259998,-5.209 -3.1004,-7.331 L 113.286,41.392671 c 1.66,-1.0289 4.181,-1.7042 5.873,-0.7203 l 115.786,67.189699 c 3.512,2.039 4.142,7.718 0.643,9.775 l -105.056,59.949 c -4.487,2.602 -10.015,2.641 -14.538,0.103 z"
     fill="#5b36a0"
     id="path4" />
  <path
     d="M 115.994,174.68107 5.6760014,109.50407 c -3.5121,-1.975 -6.52259998,-5.209 -3.1004,-7.332 L 113.286,38.384271 c 1.66,-1.0289 4.181,-1.7042 5.873,-0.7202 l 115.786,67.189999 c 3.512,2.039 4.142,7.717 0.643,9.775 l -105.056,59.949 c -4.487,2.602 -10.015,2.641 -14.538,0.103 z"
     fill="#6862e6"
     id="path6" />
  <g
     style="mix-blend-mode:multiply"
     opacity="0.25"
     id="g10"
     transform="translate(-27.999999,-0.40692885)">
    <path
       d="m 153.09,89.0938 -21.768,12.4182 c 0,0 33.533,20.457 40.39,23.338 l 12.537,-18.007"
       fill="url(#paint0_linear_332_2)"
       id="path8"
       style="fill:url(#paint0_linear_332_2)" />
  </g>
  <g
     style="mix-blend-mode:multiply"
     opacity="0.25"
     id="g14"
     transform="translate(-27.999999,-0.40692885)">
    <path
       d="m 145.57,148.67 -21.774,-12.393 -21.774,12.418 c 0,0 11.34,6.92 22.179,13.274 6.883,-4.868 13.772,-9.788 21.369,-13.299 z"
       fill="url(#paint1_linear_332_2)"
       id="path12"
       style="fill:url(#paint1_linear_332_2)" />
  </g>
  <g
     style="mix-blend-mode:multiply"
     opacity="0.46"
     id="g18"
     transform="translate(-27.999999,-0.40692885)">
    <path
       d="M 98.6577,72.1419 84.847,80.0198 c 0,0 1.1708,7.2219 8.0279,10.1029 L 110.957,78.5471"
       fill="url(#paint2_linear_332_2)"
       id="path16"
       style="fill:url(#paint2_linear_332_2)" />
  </g>
  <ellipse
     cx="77.417999"
     cy="73.747871"
     rx="8.3301497"
     ry="5.8649902"
     fill="#68e1fd"
     id="ellipse20" />
  <ellipse
     cx="77.412003"
     cy="70.288071"
     rx="6.2395701"
     ry="2.5530701"
     fill="#974c26"
     id="ellipse22" />
  <path
     fill-rule="evenodd"
     clip-rule="evenodd"
     d="m 77.058001,62.577371 c 0.09,1.1511 0.129,2.3023 0.129,3.4534 -0.007,1.4405 -0.077,2.8811 -0.232,4.3151 -0.495,-0.6881 -0.984,-1.4083 -1.499,-2.2186 -0.662,-1.0354 -1.28,-2.0965 -1.846,-3.1833 -0.526,-0.9665 -0.976,-1.9728 -1.344,-3.0097 -0.4101,-1.1262 -0.739,-2.2803 -0.9844,-3.4534 -0.0643,-0.2829 -0.1222,-0.6173 -0.1737,-0.926 v -0.1094 -0.2701 c -0.0514,-0.6045 -0.1029,-1.2475 -0.1029,-1.8906 -0.0286,-2.1871 0.3941,-4.3566 1.242,-6.3731 2.252,3.2656 3.77,6.9798 4.451,10.8876 0.043,0.2315 0.083,0.4651 0.122,0.7009 0,-0.045 0.09,0.4245 0.09,0.5981 l 0.064,0.5852 c 0.03,0.2958 0.058,0.5938 0.084,0.8939 z m -3.145,-9.4924 c 0,10e-5 0,3e-4 0,4e-4 h -0.007 c 0.002,-1e-4 0.004,-3e-4 0.007,-4e-4 z m 0,0 c 0.158,-0.0089 0.317,0.0086 0.469,0.0518 -0.154,-0.1715 -0.311,-0.3387 -0.469,-0.5016 0.033,0.1481 0.033,0.3017 0,0.4498 z"
     fill="#999a1c"
     id="path24" />
  <path
     fill-rule="evenodd"
     clip-rule="evenodd"
     d="m 81.085001,63.940771 c -0.547,1.0482 -1.113,2.0064 -1.756,2.9775 -0.779,1.2154 -1.641,2.3858 -2.496,3.5241 -0.058,-0.8424 -0.058,-1.7171 -0.058,-2.6753 0,-1.2283 0.051,-2.4501 0.167,-3.672 0.08,-1.0981 0.245,-2.1883 0.496,-3.2605 0.262,-1.17 0.608,-2.3198 1.035,-3.4405 0.116,-0.2958 0.238,-0.5852 0.36,-0.8746 v 0 l 0.033,-0.1029 0.128,-0.238 c 0.29,-0.5594 0.598,-1.1125 0.933,-1.6463 1.162,-1.858 2.695,-3.4562 4.503,-4.6945 0.13,3.9679 -0.6,7.917 -2.142,11.5756 -0.09,0.2101 -0.183,0.4244 -0.277,0.6431 l -0.251,0.5531 -0.263,0.5337 c -0.133,0.2658 -0.271,0.5316 -0.412,0.7975 z m 2.708,-10.0773 c -0.043,0.1452 -0.118,0.2791 -0.219,0.3923 0.126,0.0662 0.241,0.1507 0.341,0.2508 -0.034,-0.2058 -0.075,-0.4201 -0.122,-0.6431 z"
     fill="#999a1c"
     id="path26" />
  <path
     fill-rule="evenodd"
     clip-rule="evenodd"
     d="m 81.213001,68.744571 c -0.639,0.373 -1.282,0.7203 -1.929,1.0419 -0.811,0.4051 -1.641,0.7652 -2.47,1.1125 0.244,-0.4695 0.521,-0.9518 0.829,-1.4662 0.406,-0.6431 0.83,-1.2862 1.287,-1.9293 0.397,-0.5675 0.838,-1.1029 1.319,-1.6013 0.52,-0.5473 1.079,-1.0566 1.672,-1.5241 l 0.476,-0.3537 0.052,-0.0451 0.147,-0.09 c 0.341,-0.2058 0.682,-0.4051 1.036,-0.5852 1.224,-0.6287 2.564,-0.9987 3.937,-1.0868 -1.21,2.1808 -2.878,4.0741 -4.889,5.5498 l -0.36,0.2637 -0.309,0.2187 -0.315,0.1993 z m 4.696,-4.5659 c -0.07,0.0647 -0.153,0.113 -0.244,0.1415 v 0.0064 c 0.043,0.0807 0.073,0.1674 0.09,0.2572 0.056,-0.1329 0.107,-0.2679 0.154,-0.4051 z"
     fill="#999a1c"
     id="path28" />
  <path
     fill-rule="evenodd"
     clip-rule="evenodd"
     d="m 77.058001,62.577371 c 0.09,1.1511 0.129,2.3023 0.129,3.4534 -0.007,1.4405 -0.077,2.8811 -0.232,4.3151 -0.495,-0.6881 -0.984,-1.4083 -1.499,-2.2186 -0.662,-1.0354 -1.28,-2.0965 -1.846,-3.1833 -0.526,-0.9665 -0.976,-1.9728 -1.344,-3.0097 -0.4101,-1.1262 -0.739,-2.2803 -0.9844,-3.4534 -0.0643,-0.2829 -0.1222,-0.6173 -0.1737,-0.926 v -0.1094 -0.2701 c -0.0514,-0.6045 -0.1029,-1.2475 -0.1029,-1.8906 -0.0286,-2.1871 0.3941,-4.3566 1.242,-6.3731 2.252,3.2656 3.77,6.9798 4.451,10.8876 0.043,0.2315 0.083,0.4651 0.122,0.7009 0,-0.045 0.09,0.4245 0.09,0.5981 l 0.064,0.5852 c 0.03,0.2958 0.058,0.5938 0.084,0.8939 z m -3.145,-9.4924 c 0,10e-5 0,3e-4 0,4e-4 h -0.007 c 0.002,-1e-4 0.004,-3e-4 0.007,-4e-4 z m 0,0 c 0.158,-0.0089 0.317,0.0086 0.469,0.0518 -0.154,-0.1715 -0.311,-0.3387 -0.469,-0.5016 0.033,0.1481 0.033,0.3017 0,0.4498 z"
     fill="#999a1c"
     id="path30" />
  <path
     fill-rule="evenodd"
     clip-rule="evenodd"
     d="m 81.085001,63.940771 c -0.547,1.0482 -1.113,2.0064 -1.756,2.9775 -0.779,1.2154 -1.641,2.3858 -2.496,3.5241 -0.058,-0.8424 -0.058,-1.7171 -0.058,-2.6753 0,-1.2283 0.051,-2.4501 0.167,-3.672 0.08,-1.0981 0.245,-2.1883 0.496,-3.2605 0.262,-1.17 0.608,-2.3198 1.035,-3.4405 0.116,-0.2958 0.238,-0.5852 0.36,-0.8746 v 0 l 0.033,-0.1029 0.128,-0.238 c 0.29,-0.5594 0.598,-1.1125 0.933,-1.6463 1.162,-1.858 2.695,-3.4562 4.503,-4.6945 0.13,3.9679 -0.6,7.917 -2.142,11.5756 -0.09,0.2101 -0.183,0.4244 -0.277,0.6431 l -0.251,0.5531 -0.263,0.5337 c -0.133,0.2658 -0.271,0.5316 -0.412,0.7975 z m 2.708,-10.0773 c -0.043,0.1452 -0.118,0.2791 -0.219,0.3923 0.126,0.0662 0.241,0.1507 0.341,0.2508 -0.034,-0.2058 -0.075,-0.4201 -0.122,-0.6431 z"
     fill="#999a1c"
     id="path32" />
  <path
     fill-rule="evenodd"
     clip-rule="evenodd"
     d="m 81.213001,68.744571 c -0.639,0.373 -1.282,0.7203 -1.929,1.0419 -0.811,0.4051 -1.641,0.7652 -2.47,1.1125 0.244,-0.4695 0.521,-0.9518 0.829,-1.4662 0.406,-0.6431 0.83,-1.2862 1.287,-1.9293 0.397,-0.5675 0.838,-1.1029 1.319,-1.6013 0.52,-0.5473 1.079,-1.0566 1.672,-1.5241 l 0.476,-0.3537 0.052,-0.0451 0.147,-0.09 c 0.341,-0.2058 0.682,-0.4051 1.036,-0.5852 1.224,-0.6287 2.564,-0.9987 3.937,-1.0868 -1.21,2.1808 -2.878,4.0741 -4.889,5.5498 l -0.36,0.2637 -0.309,0.2187 -0.315,0.1993 z m 4.696,-4.5659 c -0.07,0.0647 -0.153,0.113 -0.244,0.1415 v 0.0064 c 0.043,0.0807 0.073,0.1674 0.09,0.2572 0.056,-0.1329 0.107,-0.2679 0.154,-0.4051 z"
     fill="#999a1c"
     id="path34" />
  <path
     d="m 133.735,83.837971 -12.048,5.7878 c -0.925,0.4445 -1.529,1.3636 -1.569,2.3889 -0.041,1.0253 0.489,1.989 1.376,2.505 l 28.554,16.656399 c 1.283,0.749 2.928,0.355 3.731,-0.894 l 6.941,-10.791299"
     fill="#a1482d"
     id="path36" />
  <path
     d="M 199.264,55.921371 103.194,0.57699815 c -1.342,-0.771154 -2.993,-0.769205 -4.331999,0.005116 -1.34,0.77431705 -2.165,2.20363705 -2.165,3.75053705 V 61.908571 c 0,1.2867 0.686,2.4756 1.801,3.119 L 200.917,124.13407 c 0.719,0.417 1.606,0.417 2.325,0.002 0.72,-0.416 1.163,-1.184 1.161,-2.015 V 64.783171 c -0.003,-3.6607 -1.963,-7.0406 -5.139,-8.8618 z"
     fill="#f47b56"
     id="path38" />
  <path
     d="m 103.2,4.9307212 93.169,53.5887498 c 2.025,1.1657 3.273,3.3233 3.274,5.6592 v 43.157399 c -0.001,0.841 -0.45,1.617 -1.177,2.038 -0.728,0.421 -1.624,0.424 -2.354,0.007 L 101.097,54.898871 c -0.724,-0.4148 -1.170999,-1.1851 -1.170999,-2.0193 V 6.8278412 c 0,-0.77981 0.414999,-1.50057 1.089999,-1.8916 0.675,-0.39103 1.507,-0.39313 2.184,-0.00552 z"
     fill="#ffffff"
     id="path40" />
  <ellipse
     cx="123.50736"
     cy="109.38856"
     rx="2.0262301"
     ry="2.31515"
     transform="rotate(-10.9)"
     fill="#ab643c"
     id="ellipse42" />
  <path
     opacity="0.32"
     d="m 128.242,63.484171 43.297,26.0066 21.389,-12.431 -38.216,-22.2381"
     fill="url(#paint3_linear_332_2)"
     id="path44"
     style="fill:url(#paint3_linear_332_2)" />
  <path
     d="m 181.748,58.307271 -46.81,-28.5339 c -0.51,-0.2951 -1.141,-0.2899 -1.646,0.0135 -0.505,0.3034 -0.806,0.8573 -0.785,1.4463 v 16.2573 c -0.004,0.5982 0.306,1.1547 0.817,1.4662 l 46.803,27.9295 c 0.5,0.2843 1.114,0.2807 1.612,-0.0096 0.497,-0.2902 0.802,-0.8232 0.8,-1.3988 l 0.244,-15.1576 c 0.037,-0.8072 -0.357,-1.5732 -1.035,-2.0129 z"
     fill="#e2ac00"
     id="path46" />
  <path
     d="m 170.549,66.673871 c 1.679,2.3473 4.631,3.0032 6.587,1.4727 1.955,-1.5306 2.18,-4.6753 0.501,-7.0162 -1.678,-2.3408 -4.631,-3.0032 -6.587,-1.4726 -1.955,1.5305 -2.18,4.6688 -0.501,7.0161 z"
     fill="#ffffff"
     id="path48" />
  <path
     d="m 165.956,55.406971 -19.092,-11.4921 c -0.34,-0.159 -0.745,-0.0334 -0.935,0.29 -0.19,0.3234 -0.103,0.7383 0.202,0.9576 l 19.092,11.492 c 0.339,0.1591 0.744,0.0335 0.934,-0.2899 0.191,-0.3234 0.103,-0.7383 -0.201,-0.9576 z"
     fill="#f2f2f2"
     id="path50" />
  <path
     d="m 165.171,60.075771 -26.315,-15.8393 c -0.333,-0.1163 -0.701,0.0228 -0.874,0.33 -0.173,0.3072 -0.1,0.6939 0.172,0.9176 l 26.284,15.8457 c 0.34,0.1591 0.745,0.0334 0.935,-0.29 0.19,-0.3233 0.102,-0.7382 -0.202,-0.9576 z"
     fill="#f2f2f2"
     id="path52" />
  <path
     d="m 172.408,61.458371 -46.784,-28.5275 c -0.511,-0.295 -1.141,-0.2898 -1.646,0.0136 -0.506,0.3034 -0.806,0.8572 -0.786,1.4462 v 16.2509 c -0.007,0.5993 0.3,1.1584 0.811,1.4727 l 46.803,27.9295 c 0.506,0.2907 1.13,0.2859 1.631,-0.0128 0.501,-0.2986 0.802,-0.8445 0.788,-1.4278 l 0.244,-15.1576 c 0.022,-0.8032 -0.382,-1.5585 -1.061,-1.9872 z"
     fill="#f47b56"
     id="path54" />
  <path
     d="m 161.209,69.824971 c 1.679,2.3473 4.631,3.0033 6.587,1.4727 1.955,-1.5305 2.18,-4.6753 0.501,-7.0161 -1.679,-2.3409 -4.631,-3.0032 -6.587,-1.4727 -1.955,1.5306 -2.18,4.6688 -0.501,7.0161 z"
     fill="#ffffff"
     id="path56" />
  <path
     d="m 156.616,58.558071 -19.105,-11.492 c -0.34,-0.1591 -0.745,-0.0335 -0.935,0.2899 -0.19,0.3234 -0.103,0.7383 0.202,0.9577 l 19.092,11.492 c 0.339,0.159 0.744,0.0334 0.935,-0.29 0.19,-0.3234 0.102,-0.7383 -0.202,-0.9576 z"
     fill="#f2f2f2"
     id="path58" />
  <path
     d="m 155.825,63.259071 -26.309,-15.8651 c -0.34,-0.159 -0.745,-0.0334 -0.935,0.29 -0.19,0.3234 -0.103,0.7383 0.201,0.9576 l 26.316,15.8394 c 0.34,0.159 0.745,0.0334 0.935,-0.29 0.19,-0.3234 0.102,-0.7383 -0.202,-0.9576 z"
     fill="#f2f2f2"
     id="path60" />
  <path
     d="m 160.668,63.374771 -46.797,-28.5275 c -0.51,-0.295 -1.14,-0.2898 -1.646,0.0136 -0.505,0.3034 -0.806,0.8572 -0.785,1.4462 v 16.2509 c -0.004,0.5983 0.306,1.1548 0.817,1.4663 l 46.803,27.9294 c 0.506,0.2908 1.13,0.2859 1.631,-0.0127 0.501,-0.2986 0.803,-0.8445 0.788,-1.4278 l 0.244,-15.1577 c 0.021,-0.7996 -0.379,-1.5516 -1.055,-1.9807 z"
     fill="#68e1fd"
     id="path62" />
  <path
     d="m 160.668,63.374771 -46.797,-28.5275 c -0.51,-0.295 -1.14,-0.2898 -1.646,0.0136 -0.505,0.3034 -0.806,0.8572 -0.785,1.4462 v 16.2509 c -0.004,0.5983 0.306,1.1548 0.817,1.4663 l 46.803,27.9294 c 0.506,0.2908 1.13,0.2859 1.631,-0.0127 0.501,-0.2986 0.803,-0.8445 0.788,-1.4278 l 0.244,-15.1577 c 0.021,-0.7996 -0.379,-1.5516 -1.055,-1.9807 z"
     fill="#68e1fd"
     id="path64" />
  <path
     d="m 149.463,71.741371 c 1.679,2.3473 4.631,3.0033 6.587,1.4727 1.955,-1.5305 2.18,-4.6752 0.502,-7.0161 -1.679,-2.3408 -4.632,-3.0032 -6.587,-1.4727 -1.956,1.5306 -2.162,4.6689 -0.502,7.0161 z"
     fill="#ffffff"
     id="path66" />
  <path
     d="m 144.87,60.474471 -19.098,-11.492 c -0.34,-0.1591 -0.745,-0.0335 -0.935,0.2899 -0.19,0.3234 -0.103,0.7383 0.201,0.9577 l 19.092,11.492 c 0.34,0.1591 0.745,0.0334 0.935,-0.29 0.19,-0.3234 0.103,-0.7382 -0.201,-0.9576 z"
     fill="#f2f2f2"
     id="path68" />
  <path
     d="m 144.079,65.149771 -26.316,-15.8394 c -0.34,-0.159 -0.745,-0.0334 -0.935,0.29 -0.19,0.3234 -0.102,0.7383 0.202,0.9576 l 26.315,15.8394 c 0.34,0.159 0.745,0.0334 0.935,-0.29 0.19,-0.3234 0.103,-0.7383 -0.201,-0.9576 z"
     fill="#f2f2f2"
     id="path70" />
  <path
     d="m 99.250001,61.779971 c -3.024,2.6022 -5.311,5.9531 -6.632,9.7171 -2.328,6.4309 3.493,16.939 3.493,16.939 l 9.056999,-7.1705"
     fill="#ff8f6f"
     id="path72" />
  <path
     d="m 98.273001,146.80307 -2.458,-1.357 0.644,-3.511 c 0,0 3.659999,0.347 3.980999,1.646"
     fill="#003b94"
     id="path74" />
  <path
     d="m 99.173001,146.75107 c 0.553,-0.34 1.131999,-0.643 1.704999,-0.945 1.421,-0.778 3.473,-1.582 4.348,-3.042 0.367,-0.604 0.321,-1.373 -0.116,-1.929 -1.286,-1.556 -4.104,1.003 -5.543999,-0.72 -0.283,-0.341 -0.419,-5.749 -0.419,-5.749 l -5.48,1.479 c 0,0 -0.926,10.868 -0.823,11.537 0.102,0.668 1.987,1.286 1.987,1.286 0.562,-0.119 1.097,-0.337 1.583,-0.643 0.572,-0.418 0.051,-5.518 0.784,-4.804 0.734,0.714 1.055,3.505 1.055,3.505 0.305,0.046 0.614,0.054 0.92,0.025 z"
     fill="#f47b56"
     id="path76" />
  <path
     d="m 108.738,152.05707 -2.457,-1.338 0.643,-3.511 c 0,0 3.661,0.347 3.982,1.646"
     fill="#003b94"
     id="path78" />
  <path
     d="m 109.665,152.00507 c 0.553,-0.34 1.132,-0.643 1.704,-0.945 1.422,-0.778 3.474,-1.582 4.349,-3.042 0.367,-0.604 0.321,-1.373 -0.116,-1.929 -1.287,-1.556 -4.104,1.003 -5.545,-0.72 -0.283,-0.341 -0.418,-5.749 -0.418,-5.749 l -5.481,1.479 c 0,0 -0.932,10.906 -0.829,11.55 0.103,0.643 1.987,1.286 1.987,1.286 0.562,-0.119 1.097,-0.337 1.583,-0.643 0.572,-0.418 0.051,-5.518 0.784,-4.804 0.734,0.714 1.055,3.505 1.055,3.505 0.307,0.042 0.619,0.046 0.927,0.012 z"
     fill="#f47b56"
     id="path80" />
  <path
     d="m 90.882001,116.72607 -1.615,21.588 c 0,0 2.573,3.55 11.198999,1.576 v 0 l 0.084,-14.553"
     fill="#3e2928"
     id="path82" />
  <path
     d="m 100.846,121.00207 c -0.187,1.859 0,22.36 0,22.36 0,0 2.386,4.463 12.775,0 l -0.148,-17.421"
     fill="#3e2928"
     id="path84" />
  <path
     d="m 90.078001,123.85707 c 0.707,0.489 0.952,-2.025 1.691,-1.594 2.692,1.562 5.548,2.822 8.516999,3.755 h 0.064 c 0.143,-0.069 0.308,-0.078 0.457,-0.023 0.15,0.054 0.27,0.167 0.334,0.313 1.835,0.547 3.702,0.976 5.59,1.286 2.425,0.386 4.432,-1.409 6.922,-1.531 0,-9.53 0.045,-36.655899 -4.014,-42.443799 l -12.009999,-4.0386 c -0.058,0.9904 -5.828,7.6785 -5.686,15.8329 0.161,9.189499 -1.036,17.858499 -1.242,20.733499 -0.032,0.489 -0.598,7.19 -0.623,7.71 z"
     fill="#3e2928"
     id="path86" />
  <path
     d="m 110.745,72.661071 -1.106,10.9325 c 0,0 -8.961,0.3601 -12.819999,-2.3023 v -9.2733"
     fill="#ff8f6f"
     id="path88" />
  <path
     d="m 122.137,65.464871 -0.913,1.2476 c 0.487,-1.0147 0.916,-2.056 1.286,-3.119 0.258,-0.7267 -0.907,-1.0161 -1.164,-0.2894 l -0.135,0.373 c 0.111,-0.3859 0.217,-0.7739 0.315,-1.164 0.08,-0.3214 -0.116,-0.6468 -0.437,-0.7267 -0.322,-0.0799 -0.647,0.1159 -0.727,0.4373 -0.252,1.0092 -0.555,2.005 -0.907,2.9839 0.196,-0.8691 0.338,-1.7497 0.424,-2.6366 0.078,-0.7653 -1.125,-0.7331 -1.196,0 -0.1,1.0096 -0.281,2.0096 -0.54,2.9903 0,-0.3429 -0.032,-0.6859 -0.097,-1.0289 -0.018,-0.173 -0.109,-0.33 -0.251,-0.4309 -0.032,-0.135 -0.07,-0.2636 -0.115,-0.3987 -0.095,-0.2777 -0.375,-0.4478 -0.665,-0.4035 -0.29,0.0444 -0.506,0.2904 -0.513,0.5836 l -0.077,4.5016 c -0.218,0.4668 -0.501,0.9 -0.842,1.2862 0.578,0.4003 1.137,0.8296 1.672,1.2862 0.478,0.4036 0.933,0.833 1.364,1.2862 0.386,-0.4802 0.757,-0.969 1.113,-1.4663 0.044,-0.0375 0.083,-0.0807 0.115,-0.1286 1.072,-1.5863 2.179,-3.1469 3.319,-4.6817 0.477,-0.5273 -0.572,-1.1126 -1.029,-0.5016 z"
     fill="#ffb5a9"
     id="path90" />
  <path
     d="m 105.059,62.693171 c 0,0 4.233,1.1382 5.95,3.8585 1.076,1.8828 2.023,3.8358 2.837,5.8457 l 3.126,-4.8553 c 0,0 3.795,1.164 5.3,3.0289 0,0 -4.502,9.8393 -8.426,10.6818 -3.924,0.8424 -8.092,-5.775 -8.092,-5.775 0,0 -0.862,2.7653 -0.695,-0.1865"
     fill="#ff8f6f"
     id="path92" />
  <path
     d="m 107.748,73.207671 c -1.231,-1.0008 -2.159,-2.3231 -2.683,-3.82 -0.508,-1.7299 0.129,-3.2476 0.721,-4.8553 0.64,-1.5936 1.014,-3.2818 1.106,-4.9968 0.052,-1.6849 -0.141,-3.3698 -0.257,-5.0483 -0.017,-0.0719 -0.017,-0.1467 0,-0.2186 -0.566,-1.8971 -1.724,-3.5049 -4.008,-3.6978 -5.910999,-0.5016 -6.245999,6.0451 -6.200999,8.7075 0.046,2.6623 0.329,4.463 -1.633,5.5755 -1.962,1.1126 -3.377,4.0322 -1.506,6.3924 1.872,2.3601 0.193,1.4984 -1.055,3.5948 -1.247,2.0965 -0.926,4.7139 1.634,5.6592 2.56,0.9454 14.460999,-0.8295 15.553999,-1.9292 0.388,-0.4431 0.589,-1.0196 0.56,-1.6078 -0.267,-1.4799 -1.06,-2.8136 -2.232,-3.7556 z"
     fill="#007f68"
     id="path94" />
  <path
     fill-rule="evenodd"
     clip-rule="evenodd"
     d="m 115.235,24.101271 c -0.091,-1.7531 -0.67,-3.4459 -1.672,-4.8875 -0.892,-1.4406 -2.209,-2.5687 -3.77,-3.2283 -0.799,-0.3566 -1.703,-0.4024 -2.534,-0.1286 -0.793,0.2807 -1.448,0.8566 -1.827,1.6077 -0.457,0.8953 -0.661,1.8978 -0.592,2.9003 0.056,1.1926 0.335,2.364 0.824,3.4534 0.487,1.1407 1.161,2.1925 1.994,3.1126 0.702,0.818 1.582,1.4647 2.573,1.8907 0.348,0.1391 0.714,0.2321 1.087,0.2765 0.284,0.0381 0.571,0.0381 0.855,0 0.222,-0.0307 0.438,-0.0913 0.644,-0.1801 0.13,-0.0513 0.257,-0.1114 0.379,-0.18 l 0.129,-0.0901 -0.779,-1.4469 -0.257,0.1415 c -0.261,0.1207 -0.549,0.1738 -0.836,0.1543 -0.442,0.0047 -0.879,-0.0807 -1.287,-0.2508 -1.17,-0.5366 -2.134,-1.4395 -2.746,-2.5724 -0.769,-1.1469 -1.213,-2.48 -1.287,-3.8585 -0.124,-1.0962 0.257,-2.1892 1.036,-2.9711 0.737,-0.6516 1.798,-0.7867 2.676,-0.3408 1.181,0.4909 2.178,1.3414 2.849,2.4309 0.747,1.0707 1.177,2.3298 1.242,3.6334 0.047,1.3162 -0.24,1.8521 -0.862,1.6078 -0.222,-0.0959 -0.407,-0.2605 -0.528,-0.4695 -0.142,-0.2163 -0.222,-0.4678 -0.231,-0.7267 l -0.129,-3.6142 -1.286,-0.5016 v 0.5724 l -0.116,-0.2058 c -0.132,-0.1883 -0.288,-0.359 -0.463,-0.5081 -0.206,-0.1865 -0.443,-0.3346 -0.701,-0.4373 -0.521,-0.2559 -1.146,-0.1581 -1.563,0.2444 -0.475,0.5233 -0.694,1.2294 -0.599,1.9293 0.027,0.8644 0.285,1.7058 0.746,2.4373 0.383,0.6732 0.975,1.2036 1.686,1.5113 0.298,0.1349 0.63,0.1753 0.952,0.1157 0.192,-0.0282 0.374,-0.1058 0.527,-0.2251 0.061,-0.0661 0.113,-0.1395 0.155,-0.2186 l 0.154,0.3022 c 0.148,0.2599 0.335,0.4962 0.553,0.701 0.243,0.252 0.537,0.4493 0.862,0.5788 0.533,0.2834 1.19,0.1696 1.595,-0.2765 0.464,-0.6649 0.659,-1.4803 0.547,-2.283 z m -4.245,-1.2669 c 0.042,0.3397 -0.053,0.6822 -0.264,0.9518 -0.198,0.1958 -0.499,0.2425 -0.746,0.1157 -0.345,-0.1492 -0.632,-0.4065 -0.817,-0.7331 -0.226,-0.3594 -0.352,-0.7721 -0.367,-1.1961 -0.045,-0.3372 0.059,-0.6772 0.283,-0.9325 0.217,-0.1956 0.532,-0.2366 0.791,-0.1029 0.331,0.1436 0.604,0.3923 0.779,0.7074 0.213,0.361 0.331,0.7705 0.341,1.1897 z"
     fill="#f47b56"
     id="path96" />
  <path
     fill-rule="evenodd"
     clip-rule="evenodd"
     d="m 191.184,93.735071 c -0.089,-1.7534 -0.669,-3.4467 -1.672,-4.8874 -0.86,-1.4567 -2.15,-2.6115 -3.692,-3.3055 -0.803,-0.354 -1.707,-0.3998 -2.541,-0.1286 -0.793,0.2846 -1.447,0.8622 -1.827,1.6141 -0.457,0.8928 -0.662,1.8934 -0.592,2.8939 0.055,1.1926 0.335,2.3641 0.823,3.4534 0.488,1.1428 1.162,2.1967 1.994,3.119 0.704,0.8157 1.584,1.4601 2.574,1.8843 0.346,0.1409 0.709,0.236 1.08,0.2829 0.286,0.0379 0.576,0.0379 0.862,0 0.221,-0.0344 0.437,-0.0948 0.643,-0.18 0.131,-0.0514 0.258,-0.1115 0.38,-0.1801 l 0.129,-0.09 -0.779,-1.447 -0.257,0.1415 c -0.262,0.1181 -0.549,0.1711 -0.836,0.1543 -0.442,-1e-4 -0.879,-0.0876 -1.287,-0.2572 -1.169,-0.5107 -2.143,-1.3831 -2.779,-2.4888 -0.769,-1.1463 -1.214,-2.4797 -1.286,-3.8585 -0.137,-1.0986 0.235,-2.1994 1.01,-2.9904 0.74,-0.6478 1.799,-0.7802 2.676,-0.3344 1.178,0.4911 2.172,1.339 2.843,2.4245 0.746,1.0734 1.176,2.3344 1.241,3.6399 0.039,1.3183 -0.225,1.8521 -0.868,1.6077 -0.222,-0.0959 -0.407,-0.2605 -0.528,-0.4695 -0.14,-0.2174 -0.22,-0.4682 -0.231,-0.7267 l -0.129,-3.6141 -1.286,-0.4952 v 0.5723 l -0.122,-0.2058 c -0.133,-0.1901 -0.288,-0.3629 -0.464,-0.5144 -0.205,-0.1869 -0.443,-0.335 -0.701,-0.4373 -0.518,-0.2549 -1.141,-0.1571 -1.556,0.2443 -0.478,0.5215 -0.698,1.2292 -0.599,1.9293 0.027,0.8673 0.287,1.7114 0.753,2.4438 0.382,0.6756 0.973,1.2084 1.685,1.5177 0.296,0.1351 0.627,0.1733 0.946,0.1093 0.193,-0.0268 0.375,-0.1045 0.527,-0.2251 0.059,-0.0671 0.111,-0.1404 0.155,-0.2187 l 0.154,0.3023 c 0.15,0.259 0.336,0.4951 0.553,0.701 0.245,0.2503 0.538,0.4474 0.862,0.5787 0.533,0.2811 1.188,0.1675 1.596,-0.2765 0.463,-0.6649 0.658,-1.4803 0.546,-2.283 z m -4.239,-1.2668 c 0.041,0.3405 -0.057,0.6832 -0.27,0.9517 -0.199,0.1937 -0.5,0.2378 -0.746,0.1094 -0.345,-0.1518 -0.632,-0.4112 -0.817,-0.7396 -0.225,-0.3571 -0.352,-0.7677 -0.367,-1.1897 -0.045,-0.3382 0.061,-0.6791 0.29,-0.9325 0.218,-0.1935 0.533,-0.2319 0.791,-0.0965 0.329,0.1431 0.601,0.3921 0.772,0.7074 0.216,0.3601 0.336,0.7699 0.347,1.1898 z"
     fill="#f47b56"
     id="path98" />
  <g
     style="mix-blend-mode:multiply"
     opacity="0.25"
     id="g102"
     transform="translate(-27.999999,-0.40692885)">
    <path
       d="M 89.324,116.676 67.5498,104.29 45.7821,116.702 c 0,0 12.1125,7.562 22.9513,13.916 6.8829,-4.862 13.0002,-10.424 20.5906,-13.942 z"
       fill="url(#paint4_linear_332_2)"
       id="path100"
       style="fill:url(#paint4_linear_332_2)" />
  </g>
  <g
     filter="none"
     id="g106"
     transform="translate(-27.999999,-0.40692885)">
    <path
       fill-rule="evenodd"
       clip-rule="evenodd"
       d="m 50,81.8778 v 26.9352 l 20.9841,12.018 23.6936,-14.013 V 79.8834"
       fill="#ff9271"
       id="path104" />
  </g>
  <path
     d="m 42.984101,93.488971 v 26.935099 l 23.6936,-14.013 V 79.476471 Z"
     fill="#df5c34"
     id="path108" />
  <path
     d="m 22.000001,81.470871 24.3469,-13.8778 20.3308,11.8834 -23.6936,14.0125 z"
     fill="#f47b56"
     id="path110" />
  <path
     fill-rule="evenodd"
     clip-rule="evenodd"
     d="m 50.645001,75.340071 c -2.1706,-1.1886 -4.6352,-1.7315 -7.1036,-1.5648 -2.5899,0.0456 -5.1202,0.7853 -7.3278,2.1419 -1.1578,0.6592 -2.0789,1.6667 -2.6326,2.8795 -0.4617,1.0501 -0.4617,2.2461 0,3.2963 0.559,1.1912 1.4897,2.168 2.6518,2.7832 1.4399,0.814 3.0273,1.3329 4.6695,1.5264 1.8068,0.2501 3.6414,0.2176 5.4382,-0.0962 1.6488,-0.2509 3.2328,-0.8216 4.6632,-1.6803 0.4964,-0.3035 0.9582,-0.6604 1.3771,-1.0645 0.3178,-0.3014 0.6013,-0.6369 0.8455,-1.0005 0.1692,-0.2697 0.3067,-0.5581 0.41,-0.8593 0.0717,-0.1879 0.1295,-0.3808 0.1729,-0.5772 0.0039,-0.0726 0.0039,-0.1454 0,-0.218 l -2.3764,-0.1347 -0.0896,0.404 c -0.129,0.407 -0.348,0.7796 -0.6406,1.0902 -0.4374,0.5079 -0.9545,0.9411 -1.5309,1.2826 -1.6659,0.9879 -3.5727,1.494 -5.5086,1.4622 -1.9445,0.0822 -3.8736,-0.3773 -5.5727,-1.3275 -1.5565,-0.917 -2.3572,-2.0586 -2.3572,-3.3412 -0.0128,-1.3082 0.7366,-2.4348 2.2483,-3.3796 1.6611,-1.0131 3.5638,-1.5602 5.5086,-1.5841 1.8352,-0.1208 3.6666,0.2864 5.2781,1.1736 1.5159,0.8978 1.8319,1.6225 0.948,2.174 -0.6479,0.3489 -1.4275,0.3489 -2.0754,0 l -4.1699,-2.4562 -1.7999,1.1223 0.6405,0.3848 h -0.3523 c -0.3449,0.0192 -0.6865,0.0773 -1.0184,0.1732 -0.4162,0.1081 -0.8136,0.2789 -1.1786,0.5066 -0.7757,0.3683 -1.2732,1.1478 -1.2811,2.0073 0.0384,0.7952 0.5509,1.4878 1.5501,2.0778 1.0567,0.6073 2.2602,0.9113 3.4781,0.8786 1.1772,0.0231 2.3375,-0.2834 3.3501,-0.885 0.4344,-0.2462 0.7966,-0.6022 1.0505,-1.0325 0.1525,-0.2314 0.2409,-0.4992 0.2562,-0.776 -0.0142,-0.1169 -0.0444,-0.2312 -0.0897,-0.3399 l 0.4868,0.0385 c 0.446,0.0131 0.8917,-0.0322 1.3259,-0.1347 0.5284,-0.1068 1.0337,-0.3065 1.4925,-0.59 0.9672,-0.5836 1.3772,-1.2762 1.2811,-2.0714 -0.0961,-0.7952 -0.7751,-1.5584 -2.0177,-2.2894 z m -5.5727,4.0658 c 0.4156,0.1805 0.7153,0.555 0.8006,1.0005 h 0.0257 c 0.0066,0.4099 -0.2297,0.7849 -0.6021,0.9555 -0.492,0.2909 -1.0558,0.4376 -1.627,0.4233 -0.5943,0.0137 -1.1811,-0.1348 -1.6975,-0.4297 -0.4105,-0.1801 -0.6971,-0.562 -0.7558,-1.0069 0.0097,-0.4272 0.2568,-0.8132 0.6406,-1.0004 0.4673,-0.28 1.0058,-0.4182 1.5501,-0.3976 0.5857,8e-4 1.1606,0.1579 1.6654,0.4553 z"
     fill="#3e2928"
     id="path112" />
  <defs
     id="defs162">
    <filter
       id="filter0_d_332_2"
       x="0"
       y="54.8834"
       width="144.67799"
       height="140.94701"
       filterUnits="userSpaceOnUse"
       color-interpolation-filters="sRGB">
      <feFlood
         flood-opacity="0"
         result="BackgroundImageFix"
         id="feFlood114" />
      <feColorMatrix
         in="SourceAlpha"
         type="matrix"
         values="0 0 0 0 0 0 0 0 0 0 0 0 0 0 0 0 0 0 127 0"
         result="hardAlpha"
         id="feColorMatrix116" />
      <feOffset
         dy="25"
         id="feOffset118" />
      <feGaussianBlur
         stdDeviation="25"
         id="feGaussianBlur120" />
      <feColorMatrix
         type="matrix"
         values="0 0 0 0 0.209139 0 0 0 0 0.0691446 0 0 0 0 0.478091 0 0 0 0.497159 0"
         id="feColorMatrix122" />
      <feBlend
         mode="normal"
         in2="BackgroundImageFix"
         result="effect1_dropShadow_332_2"
         id="feBlend124" />
      <feBlend
         mode="normal"
         in="SourceGraphic"
         in2="effect1_dropShadow_332_2"
         result="shape"
         id="feBlend126" />
    </filter>
    <linearGradient
       id="paint0_linear_332_2"
       x1="152.88"
       y1="93.0298"
       x2="147.356"
       y2="109.429"
       gradientUnits="userSpaceOnUse">
      <stop
         stop-color="#78B46A"
         id="stop129" />
      <stop
         offset="0.03"
         stop-color="#7F3500"
         id="stop131" />
      <stop
         offset="1"
         stop-color="white"
         id="stop133" />
    </linearGradient>
    <linearGradient
       id="paint1_linear_332_2"
       x1="116.638"
       y1="126.59"
       x2="107.345"
       y2="155.86"
       gradientUnits="userSpaceOnUse">
      <stop
         stop-color="#78B46A"
         id="stop136" />
      <stop
         offset="0.03"
         stop-color="#7F3500"
         id="stop138" />
      <stop
         offset="1"
         stop-color="white"
         id="stop140" />
    </linearGradient>
    <linearGradient
       id="paint2_linear_332_2"
       x1="93.622803"
       y1="65.181999"
       x2="85.025497"
       y2="85.057899"
       gradientUnits="userSpaceOnUse">
      <stop
         stop-color="#78B46A"
         id="stop143" />
      <stop
         offset="0.03"
         stop-color="#7F3500"
         id="stop145" />
      <stop
         offset="1"
         stop-color="white"
         id="stop147" />
    </linearGradient>
    <linearGradient
       id="paint3_linear_332_2"
       x1="214.61099"
       y1="82.956497"
       x2="211.25301"
       y2="74.432899"
       gradientUnits="userSpaceOnUse"
       gradientTransform="translate(-27.999999,-0.40692885)">
      <stop
         stop-color="white"
         stop-opacity="0.01"
         id="stop150" />
      <stop
         offset="0.99"
         stop-color="#DC841E"
         id="stop152" />
    </linearGradient>
    <linearGradient
       id="paint4_linear_332_2"
       x1="60.912102"
       y1="94.436996"
       x2="51.135201"
       y2="123.753"
       gradientUnits="userSpaceOnUse">
      <stop
         stop-color="#78B46A"
         id="stop155" />
      <stop
         offset="0.03"
         stop-color="#7F3500"
         id="stop157" />
      <stop
         offset="1"
         stop-color="white"
         id="stop159" />
    </linearGradient>
  </defs>
</svg>
